<svg id="visual" viewBox="0 0 3840 600" width="3840" height="600" xmlns="http://www.w3.org/2000/svg" xmlns:xlink="http://www.w3.org/1999/xlink" version="1.1"><rect x="0" y="0" width="3840" height="600" fill="#2a4eff"></rect><path d="M0 480L37.7 482.7C75.3 485.3 150.7 490.7 226 486.7C301.3 482.7 376.7 469.3 452 469.3C527.3 469.3 602.7 482.7 678 486.5C753.3 490.3 828.7 484.7 903.8 483.5C979 482.3 1054 485.7 1129.2 481.5C1204.3 477.3 1279.7 465.7 1355 463.2C1430.3 460.7 1505.7 467.3 1581 473.5C1656.3 479.7 1731.7 485.3 1807 487C1882.3 488.7 1957.7 486.3 2033 487.3C2108.3 488.3 2183.7 492.7 2259 490.3C2334.3 488 2409.7 479 2485 477.8C2560.3 476.7 2635.7 483.3 2710.8 483.2C2786 483 2861 476 2936.2 470.8C3011.3 465.7 3086.7 462.3 3162 461.7C3237.3 461 3312.7 463 3388 463.3C3463.3 463.7 3538.7 462.3 3614 460C3689.3 457.7 3764.7 454.3 3802.3 452.7L3840 451L3840 601L3802.3 601C3764.7 601 3689.3 601 3614 601C3538.7 601 3463.3 601 3388 601C3312.7 601 3237.3 601 3162 601C3086.7 601 3011.3 601 2936.2 601C2861 601 2786 601 2710.8 601C2635.7 601 2560.3 601 2485 601C2409.7 601 2334.3 601 2259 601C2183.7 601 2108.3 601 2033 601C1957.7 601 1882.3 601 1807 601C1731.7 601 1656.3 601 1581 601C1505.7 601 1430.3 601 1355 601C1279.7 601 1204.3 601 1129.2 601C1054 601 979 601 903.8 601C828.7 601 753.3 601 678 601C602.7 601 527.3 601 452 601C376.7 601 301.3 601 226 601C150.7 601 75.3 601 37.7 601L0 601Z" fill="#757575"></path><path d="M0 498L37.7 501.5C75.3 505 150.7 512 226 512.7C301.3 513.3 376.7 507.7 452 502.3C527.3 497 602.7 492 678 494.2C753.3 496.3 828.7 505.7 903.8 508C979 510.3 1054 505.7 1129.2 504.5C1204.3 503.3 1279.7 505.7 1355 508.8C1430.3 512 1505.7 516 1581 513.7C1656.3 511.3 1731.7 502.7 1807 497.5C1882.3 492.3 1957.7 490.7 2033 493.8C2108.3 497 2183.7 505 2259 509C2334.3 513 2409.7 513 2485 509C2560.3 505 2635.7 497 2710.8 494.2C2786 491.3 2861 493.7 2936.2 492.3C3011.3 491 3086.7 486 3162 488.5C3237.3 491 3312.7 501 3388 502.5C3463.3 504 3538.7 497 3614 492C3689.3 487 3764.7 484 3802.3 482.5L3840 481L3840 601L3802.3 601C3764.7 601 3689.3 601 3614 601C3538.7 601 3463.3 601 3388 601C3312.7 601 3237.3 601 3162 601C3086.7 601 3011.3 601 2936.2 601C2861 601 2786 601 2710.8 601C2635.7 601 2560.3 601 2485 601C2409.7 601 2334.3 601 2259 601C2183.7 601 2108.3 601 2033 601C1957.7 601 1882.3 601 1807 601C1731.7 601 1656.3 601 1581 601C1505.7 601 1430.3 601 1355 601C1279.7 601 1204.3 601 1129.2 601C1054 601 979 601 903.8 601C828.7 601 753.3 601 678 601C602.7 601 527.3 601 452 601C376.7 601 301.3 601 226 601C150.7 601 75.3 601 37.7 601L0 601Z" fill="#a1a1a1"></path><path d="M0 541L37.7 542.8C75.3 544.7 150.7 548.3 226 544C301.3 539.7 376.7 527.3 452 523.8C527.3 520.3 602.7 525.7 678 528.8C753.3 532 828.7 533 903.8 532.5C979 532 1054 530 1129.2 532.8C1204.3 535.7 1279.7 543.3 1355 546.3C1430.3 549.3 1505.7 547.7 1581 542.3C1656.3 537 1731.7 528 1807 525.8C1882.3 523.7 1957.7 528.3 2033 527.3C2108.3 526.3 2183.7 519.7 2259 521.7C2334.3 523.7 2409.7 534.3 2485 537.7C2560.3 541 2635.7 537 2710.8 533.2C2786 529.3 2861 525.7 2936.2 523.3C3011.3 521 3086.7 520 3162 524.7C3237.3 529.3 3312.7 539.7 3388 539.2C3463.3 538.7 3538.7 527.3 3614 527.8C3689.3 528.3 3764.7 540.7 3802.3 546.8L3840 553L3840 601L3802.3 601C3764.7 601 3689.3 601 3614 601C3538.7 601 3463.3 601 3388 601C3312.7 601 3237.3 601 3162 601C3086.7 601 3011.3 601 2936.2 601C2861 601 2786 601 2710.8 601C2635.7 601 2560.3 601 2485 601C2409.7 601 2334.3 601 2259 601C2183.7 601 2108.3 601 2033 601C1957.7 601 1882.3 601 1807 601C1731.7 601 1656.3 601 1581 601C1505.7 601 1430.3 601 1355 601C1279.7 601 1204.3 601 1129.2 601C1054 601 979 601 903.8 601C828.7 601 753.3 601 678 601C602.7 601 527.3 601 452 601C376.7 601 301.3 601 226 601C150.7 601 75.3 601 37.7 601L0 601Z" fill="#cfcfcf"></path><path d="M0 571L37.7 569.8C75.3 568.7 150.7 566.3 226 564.3C301.3 562.3 376.7 560.7 452 561.8C527.3 563 602.7 567 678 565.8C753.3 564.7 828.7 558.3 903.8 556.7C979 555 1054 558 1129.2 561.2C1204.3 564.3 1279.7 567.7 1355 571C1430.3 574.3 1505.7 577.7 1581 574C1656.3 570.3 1731.7 559.7 1807 554.7C1882.3 549.7 1957.7 550.3 2033 553.3C2108.3 556.3 2183.7 561.7 2259 560.7C2334.3 559.7 2409.7 552.3 2485 550.3C2560.3 548.3 2635.7 551.7 2710.8 554.7C2786 557.7 2861 560.3 2936.2 560.8C3011.3 561.3 3086.7 559.7 3162 562.3C3237.3 565 3312.7 572 3388 573.8C3463.3 575.7 3538.7 572.3 3614 567C3689.3 561.7 3764.7 554.3 3802.3 550.7L3840 547L3840 601L3802.3 601C3764.7 601 3689.3 601 3614 601C3538.7 601 3463.3 601 3388 601C3312.7 601 3237.3 601 3162 601C3086.7 601 3011.3 601 2936.2 601C2861 601 2786 601 2710.8 601C2635.7 601 2560.3 601 2485 601C2409.7 601 2334.3 601 2259 601C2183.7 601 2108.3 601 2033 601C1957.7 601 1882.3 601 1807 601C1731.7 601 1656.3 601 1581 601C1505.7 601 1430.3 601 1355 601C1279.7 601 1204.3 601 1129.2 601C1054 601 979 601 903.8 601C828.7 601 753.3 601 678 601C602.7 601 527.3 601 452 601C376.7 601 301.3 601 226 601C150.7 601 75.3 601 37.7 601L0 601Z" fill="#ffffff"></path></svg>