<svg id="visual" viewBox="0 0 3840 600" width="3840" height="600" xmlns="http://www.w3.org/2000/svg" xmlns:xlink="http://www.w3.org/1999/xlink" version="1.1"><rect x="0" y="0" width="3840" height="600" fill="#0017ff"></rect><path d="M0 37L37.7 36.5C75.3 36 150.7 35 226 35.7C301.3 36.3 376.7 38.7 452 36C527.3 33.3 602.7 25.7 678 21.5C753.3 17.3 828.7 16.7 903.8 18.5C979 20.3 1054 24.7 1129.2 29.3C1204.3 34 1279.7 39 1355 37.3C1430.3 35.7 1505.7 27.3 1581 22.2C1656.3 17 1731.7 15 1807 17.8C1882.3 20.7 1957.7 28.3 2033 32.8C2108.3 37.3 2183.7 38.7 2259 38.7C2334.3 38.7 2409.7 37.3 2485 37.5C2560.3 37.7 2635.7 39.3 2710.8 35.8C2786 32.3 2861 23.7 2936.2 21.8C3011.3 20 3086.7 25 3162 29.8C3237.3 34.7 3312.7 39.3 3388 41.2C3463.3 43 3538.7 42 3614 39.7C3689.3 37.3 3764.7 33.7 3802.3 31.8L3840 30L3840 0L3802.3 0C3764.7 0 3689.3 0 3614 0C3538.7 0 3463.3 0 3388 0C3312.7 0 3237.3 0 3162 0C3086.7 0 3011.3 0 2936.2 0C2861 0 2786 0 2710.8 0C2635.7 0 2560.3 0 2485 0C2409.7 0 2334.3 0 2259 0C2183.7 0 2108.3 0 2033 0C1957.7 0 1882.3 0 1807 0C1731.7 0 1656.3 0 1581 0C1505.7 0 1430.3 0 1355 0C1279.7 0 1204.3 0 1129.2 0C1054 0 979 0 903.8 0C828.7 0 753.3 0 678 0C602.7 0 527.3 0 452 0C376.7 0 301.3 0 226 0C150.7 0 75.3 0 37.7 0L0 0Z" fill="#ffffff" stroke-linecap="round" stroke-linejoin="miter"></path></svg>