<svg id="visual" viewBox="0 0 576 600" width="576" height="600" xmlns="http://www.w3.org/2000/svg" xmlns:xlink="http://www.w3.org/1999/xlink" version="1.1"><rect x="0" y="0" width="576" height="600" fill="#0066ff"></rect><path d="M0 33L10.7 32.8C21.3 32.7 42.7 32.3 64 30.3C85.3 28.3 106.7 24.7 128 25.8C149.3 27 170.7 33 192 33.3C213.3 33.7 234.7 28.3 256 24.7C277.3 21 298.7 19 320 19.8C341.3 20.7 362.7 24.3 384 24.5C405.3 24.7 426.7 21.3 448 22.8C469.3 24.3 490.7 30.7 512 33.8C533.3 37 554.7 37 565.3 37L576 37L576 0L565.3 0C554.7 0 533.3 0 512 0C490.7 0 469.3 0 448 0C426.7 0 405.3 0 384 0C362.7 0 341.3 0 320 0C298.7 0 277.3 0 256 0C234.7 0 213.3 0 192 0C170.7 0 149.3 0 128 0C106.7 0 85.3 0 64 0C42.7 0 21.3 0 10.7 0L0 0Z" fill="#ffffff" stroke-linecap="round" stroke-linejoin="miter"></path></svg>