<svg id="visual" viewBox="0 0 1920 600" width="1920" height="600" xmlns="http://www.w3.org/2000/svg" xmlns:xlink="http://www.w3.org/1999/xlink" version="1.1"><rect x="0" y="0" width="1920" height="600" fill="#0066ff"></rect><path d="M0 44L35.5 50.2C71 56.3 142 68.7 213.2 67.8C284.3 67 355.7 53 426.8 46C498 39 569 39 640 44.3C711 49.7 782 60.3 853.2 64.8C924.3 69.3 995.7 67.7 1066.8 61.2C1138 54.7 1209 43.3 1280 42.3C1351 41.3 1422 50.7 1493.2 57.3C1564.3 64 1635.7 68 1706.8 65.7C1778 63.3 1849 54.7 1884.5 50.3L1920 46L1920 0L1884.5 0C1849 0 1778 0 1706.8 0C1635.7 0 1564.3 0 1493.2 0C1422 0 1351 0 1280 0C1209 0 1138 0 1066.8 0C995.7 0 924.3 0 853.2 0C782 0 711 0 640 0C569 0 498 0 426.8 0C355.7 0 284.3 0 213.2 0C142 0 71 0 35.5 0L0 0Z" fill="#FFFFFF" stroke-linecap="round" stroke-linejoin="miter"></path></svg>