<svg id="visual" viewBox="0 0 1920 600" width="1920" height="600" xmlns="http://www.w3.org/2000/svg" xmlns:xlink="http://www.w3.org/1999/xlink" version="1.1"><rect x="0" y="0" width="1920" height="600" fill="#282d30"></rect><path d="M0 432L26.7 428.3C53.3 424.7 106.7 417.3 160 418.3C213.3 419.3 266.7 428.7 320 427.7C373.3 426.7 426.7 415.3 480 415.3C533.3 415.3 586.7 426.7 640 438.2C693.3 449.7 746.7 461.3 800 469.2C853.3 477 906.7 481 960 477.3C1013.3 473.7 1066.7 462.3 1120 453.3C1173.3 444.3 1226.7 437.7 1280 443.7C1333.3 449.7 1386.7 468.3 1440 466.8C1493.3 465.3 1546.7 443.7 1600 435.5C1653.3 427.3 1706.7 432.7 1760 430.2C1813.3 427.7 1866.7 417.3 1893.3 412.2L1920 407L1920 601L1893.3 601C1866.7 601 1813.3 601 1760 601C1706.7 601 1653.3 601 1600 601C1546.7 601 1493.3 601 1440 601C1386.7 601 1333.3 601 1280 601C1226.7 601 1173.3 601 1120 601C1066.7 601 1013.3 601 960 601C906.7 601 853.3 601 800 601C746.7 601 693.3 601 640 601C586.7 601 533.3 601 480 601C426.7 601 373.3 601 320 601C266.7 601 213.3 601 160 601C106.7 601 53.3 601 26.7 601L0 601Z" fill="#0066ff"></path><path d="M0 508L26.7 498.7C53.3 489.3 106.7 470.7 160 463.8C213.3 457 266.7 462 320 459.8C373.3 457.7 426.7 448.3 480 451.3C533.3 454.3 586.7 469.7 640 481C693.3 492.3 746.7 499.7 800 499.2C853.3 498.7 906.7 490.3 960 488.7C1013.3 487 1066.7 492 1120 488.3C1173.3 484.7 1226.7 472.3 1280 467.7C1333.3 463 1386.7 466 1440 465.8C1493.3 465.7 1546.7 462.3 1600 465.2C1653.3 468 1706.7 477 1760 482.5C1813.3 488 1866.7 490 1893.3 491L1920 492L1920 601L1893.3 601C1866.7 601 1813.3 601 1760 601C1706.7 601 1653.3 601 1600 601C1546.7 601 1493.3 601 1440 601C1386.7 601 1333.3 601 1280 601C1226.7 601 1173.3 601 1120 601C1066.7 601 1013.3 601 960 601C906.7 601 853.3 601 800 601C746.7 601 693.3 601 640 601C586.7 601 533.3 601 480 601C426.7 601 373.3 601 320 601C266.7 601 213.3 601 160 601C106.7 601 53.3 601 26.7 601L0 601Z" fill="#005fcc"></path><path d="M0 528L26.7 525C53.3 522 106.7 516 160 506.7C213.3 497.3 266.7 484.7 320 480.3C373.3 476 426.7 480 480 483.2C533.3 486.3 586.7 488.7 640 495.8C693.3 503 746.7 515 800 516.7C853.3 518.3 906.7 509.7 960 508.3C1013.3 507 1066.7 513 1120 518C1173.3 523 1226.7 527 1280 520.2C1333.3 513.3 1386.7 495.7 1440 490.8C1493.3 486 1546.7 494 1600 499.3C1653.3 504.7 1706.7 507.3 1760 511.7C1813.3 516 1866.7 522 1893.3 525L1920 528L1920 601L1893.3 601C1866.7 601 1813.3 601 1760 601C1706.7 601 1653.3 601 1600 601C1546.7 601 1493.3 601 1440 601C1386.7 601 1333.3 601 1280 601C1226.7 601 1173.3 601 1120 601C1066.7 601 1013.3 601 960 601C906.7 601 853.3 601 800 601C746.7 601 693.3 601 640 601C586.7 601 533.3 601 480 601C426.7 601 373.3 601 320 601C266.7 601 213.3 601 160 601C106.7 601 53.3 601 26.7 601L0 601Z" fill="#005397"></path><path d="M0 526L26.7 523C53.3 520 106.7 514 160 513.2C213.3 512.3 266.7 516.7 320 516.3C373.3 516 426.7 511 480 513.7C533.3 516.3 586.7 526.7 640 527.7C693.3 528.7 746.7 520.3 800 523.3C853.3 526.3 906.7 540.7 960 540.3C1013.3 540 1066.7 525 1120 516.7C1173.3 508.3 1226.7 506.7 1280 507.8C1333.3 509 1386.7 513 1440 515.3C1493.3 517.7 1546.7 518.3 1600 523.2C1653.3 528 1706.7 537 1760 540.7C1813.3 544.3 1866.7 542.7 1893.3 541.8L1920 541L1920 601L1893.3 601C1866.7 601 1813.3 601 1760 601C1706.7 601 1653.3 601 1600 601C1546.7 601 1493.3 601 1440 601C1386.7 601 1333.3 601 1280 601C1226.7 601 1173.3 601 1120 601C1066.7 601 1013.3 601 960 601C906.7 601 853.3 601 800 601C746.7 601 693.3 601 640 601C586.7 601 533.3 601 480 601C426.7 601 373.3 601 320 601C266.7 601 213.3 601 160 601C106.7 601 53.3 601 26.7 601L0 601Z" fill="#114261"></path><path d="M0 575L26.7 575.3C53.3 575.7 106.7 576.3 160 573.8C213.3 571.3 266.7 565.7 320 561.5C373.3 557.3 426.7 554.7 480 557.8C533.3 561 586.7 570 640 572C693.3 574 746.7 569 800 567.2C853.3 565.3 906.7 566.7 960 565.7C1013.3 564.7 1066.7 561.3 1120 562.7C1173.3 564 1226.7 570 1280 567.7C1333.3 565.3 1386.7 554.7 1440 550.2C1493.3 545.7 1546.7 547.3 1600 552C1653.3 556.7 1706.7 564.3 1760 564.2C1813.3 564 1866.7 556 1893.3 552L1920 548L1920 601L1893.3 601C1866.7 601 1813.3 601 1760 601C1706.7 601 1653.3 601 1600 601C1546.7 601 1493.3 601 1440 601C1386.7 601 1333.3 601 1280 601C1226.7 601 1173.3 601 1120 601C1066.7 601 1013.3 601 960 601C906.7 601 853.3 601 800 601C746.7 601 693.3 601 640 601C586.7 601 533.3 601 480 601C426.7 601 373.3 601 320 601C266.7 601 213.3 601 160 601C106.7 601 53.3 601 26.7 601L0 601Z" fill="#282d30"></path></svg>