<svg id="visual" viewBox="0 0 576 600" width="576" height="600" xmlns="http://www.w3.org/2000/svg" xmlns:xlink="http://www.w3.org/1999/xlink" version="1.1"><rect x="0" y="0" width="576" height="600" fill="#282d30"></rect><path d="M0 489L19.2 485.3C38.3 481.7 76.7 474.3 115 466.7C153.3 459 191.7 451 230.2 451.5C268.7 452 307.3 461 345.8 465.2C384.3 469.3 422.7 468.7 461 466.8C499.3 465 537.7 462 556.8 460.5L576 459L576 601L556.8 601C537.7 601 499.3 601 461 601C422.7 601 384.3 601 345.8 601C307.3 601 268.7 601 230.2 601C191.7 601 153.3 601 115 601C76.7 601 38.3 601 19.2 601L0 601Z" fill="#0066ff"></path><path d="M0 484L19.2 487.7C38.3 491.3 76.7 498.7 115 491C153.3 483.3 191.7 460.7 230.2 459C268.7 457.3 307.3 476.7 345.8 485C384.3 493.3 422.7 490.7 461 493.3C499.3 496 537.7 504 556.8 508L576 512L576 601L556.8 601C537.7 601 499.3 601 461 601C422.7 601 384.3 601 345.8 601C307.3 601 268.7 601 230.2 601C191.7 601 153.3 601 115 601C76.7 601 38.3 601 19.2 601L0 601Z" fill="#7789ff"></path><path d="M0 496L19.2 502C38.3 508 76.7 520 115 516.2C153.3 512.3 191.7 492.7 230.2 485.7C268.7 478.7 307.3 484.3 345.8 485C384.3 485.7 422.7 481.3 461 483C499.3 484.7 537.7 492.3 556.8 496.2L576 500L576 601L556.8 601C537.7 601 499.3 601 461 601C422.7 601 384.3 601 345.8 601C307.3 601 268.7 601 230.2 601C191.7 601 153.3 601 115 601C76.7 601 38.3 601 19.2 601L0 601Z" fill="#acafff"></path><path d="M0 541L19.2 542.2C38.3 543.3 76.7 545.7 115 543.2C153.3 540.7 191.7 533.3 230.2 531.8C268.7 530.3 307.3 534.7 345.8 532.8C384.3 531 422.7 523 461 522.8C499.3 522.7 537.7 530.3 556.8 534.2L576 538L576 601L556.8 601C537.7 601 499.3 601 461 601C422.7 601 384.3 601 345.8 601C307.3 601 268.7 601 230.2 601C191.7 601 153.3 601 115 601C76.7 601 38.3 601 19.2 601L0 601Z" fill="#d7d6ff"></path><path d="M0 568L19.2 569.7C38.3 571.3 76.7 574.7 115 574.7C153.3 574.7 191.7 571.3 230.2 565.3C268.7 559.3 307.3 550.7 345.8 550C384.3 549.3 422.7 556.7 461 561C499.3 565.3 537.7 566.7 556.8 567.3L576 568L576 601L556.8 601C537.7 601 499.3 601 461 601C422.7 601 384.3 601 345.8 601C307.3 601 268.7 601 230.2 601C191.7 601 153.3 601 115 601C76.7 601 38.3 601 19.2 601L0 601Z" fill="#ffffff"></path></svg>